%TF.GenerationSoftware,KiCad,Pcbnew,7.0.5*%
%TF.CreationDate,2023-06-08T09:16:15-06:00*%
%TF.ProjectId,VoltageRegulator,566f6c74-6167-4655-9265-67756c61746f,rev?*%
%TF.SameCoordinates,Original*%
%TF.FileFunction,Copper,L2,Bot*%
%TF.FilePolarity,Positive*%
%FSLAX46Y46*%
G04 Gerber Fmt 4.6, Leading zero omitted, Abs format (unit mm)*
G04 Created by KiCad (PCBNEW 7.0.5) date 2023-06-08 09:16:15*
%MOMM*%
%LPD*%
G01*
G04 APERTURE LIST*
%TA.AperFunction,ComponentPad*%
%ADD10R,1.700000X1.700000*%
%TD*%
%TA.AperFunction,ComponentPad*%
%ADD11O,1.700000X1.700000*%
%TD*%
G04 APERTURE END LIST*
D10*
%TO.P,J1,1,Pin_1*%
%TO.N,+BATT*%
X132080000Y-94625000D03*
D11*
%TO.P,J1,2,Pin_2*%
%TO.N,GND*%
X132080000Y-97165000D03*
%TO.P,J1,3,Pin_3*%
X132080000Y-99705000D03*
%TO.P,J1,4,Pin_4*%
%TO.N,VCC*%
X132080000Y-102245000D03*
%TD*%
%TA.AperFunction,Conductor*%
%TO.N,GND*%
G36*
X144977039Y-91713685D02*
G01*
X145022794Y-91766489D01*
X145034000Y-91818000D01*
X145034000Y-105032000D01*
X145014315Y-105099039D01*
X144961511Y-105144794D01*
X144910000Y-105156000D01*
X130680000Y-105156000D01*
X130612961Y-105136315D01*
X130567206Y-105083511D01*
X130556000Y-105032000D01*
X130556000Y-102717162D01*
X130575685Y-102650123D01*
X130628489Y-102604368D01*
X130697647Y-102594424D01*
X130761203Y-102623449D01*
X130798977Y-102682227D01*
X130799775Y-102685070D01*
X130806093Y-102708653D01*
X130806096Y-102708660D01*
X130806097Y-102708663D01*
X130905964Y-102922830D01*
X130905965Y-102922830D01*
X130905967Y-102922834D01*
X131014281Y-103077521D01*
X131041505Y-103116401D01*
X131208599Y-103283495D01*
X131305384Y-103351264D01*
X131402165Y-103419032D01*
X131402167Y-103419033D01*
X131402170Y-103419035D01*
X131616337Y-103518903D01*
X131844592Y-103580063D01*
X132032918Y-103596539D01*
X132079999Y-103600659D01*
X132080000Y-103600659D01*
X132080001Y-103600659D01*
X132119234Y-103597226D01*
X132315408Y-103580063D01*
X132543663Y-103518903D01*
X132757830Y-103419035D01*
X132951401Y-103283495D01*
X133118495Y-103116401D01*
X133254035Y-102922830D01*
X133353903Y-102708663D01*
X133415063Y-102480408D01*
X133435659Y-102245000D01*
X133415063Y-102009592D01*
X133353903Y-101781337D01*
X133254035Y-101567171D01*
X133118495Y-101373599D01*
X133118494Y-101373597D01*
X132951402Y-101206506D01*
X132951401Y-101206505D01*
X132765405Y-101076269D01*
X132721781Y-101021692D01*
X132714588Y-100952193D01*
X132746110Y-100889839D01*
X132765405Y-100873119D01*
X132951082Y-100743105D01*
X133118105Y-100576082D01*
X133253600Y-100382578D01*
X133353429Y-100168492D01*
X133353432Y-100168486D01*
X133410636Y-99955000D01*
X132513686Y-99955000D01*
X132539493Y-99914844D01*
X132580000Y-99776889D01*
X132580000Y-99633111D01*
X132539493Y-99495156D01*
X132513686Y-99455000D01*
X133410636Y-99455000D01*
X133410635Y-99454999D01*
X133353432Y-99241513D01*
X133353429Y-99241507D01*
X133253600Y-99027422D01*
X133253599Y-99027420D01*
X133118113Y-98833926D01*
X133118108Y-98833920D01*
X132951082Y-98666894D01*
X132764968Y-98536575D01*
X132721344Y-98481998D01*
X132714151Y-98412499D01*
X132745673Y-98350145D01*
X132764968Y-98333425D01*
X132951082Y-98203105D01*
X133118105Y-98036082D01*
X133253600Y-97842578D01*
X133353429Y-97628492D01*
X133353432Y-97628486D01*
X133410636Y-97415000D01*
X132513686Y-97415000D01*
X132539493Y-97374844D01*
X132580000Y-97236889D01*
X132580000Y-97093111D01*
X132539493Y-96955156D01*
X132513686Y-96915000D01*
X133410636Y-96915000D01*
X133410635Y-96914999D01*
X133353432Y-96701513D01*
X133353429Y-96701507D01*
X133253600Y-96487422D01*
X133253599Y-96487420D01*
X133118113Y-96293926D01*
X133118108Y-96293920D01*
X132996053Y-96171865D01*
X132962568Y-96110542D01*
X132967552Y-96040850D01*
X133009424Y-95984917D01*
X133040400Y-95968002D01*
X133172331Y-95918796D01*
X133287546Y-95832546D01*
X133373796Y-95717331D01*
X133424091Y-95582483D01*
X133430500Y-95522873D01*
X133430499Y-93727128D01*
X133424091Y-93667517D01*
X133373796Y-93532669D01*
X133373795Y-93532668D01*
X133373793Y-93532664D01*
X133287547Y-93417455D01*
X133287544Y-93417452D01*
X133172335Y-93331206D01*
X133172328Y-93331202D01*
X133037482Y-93280908D01*
X133037483Y-93280908D01*
X132977883Y-93274501D01*
X132977881Y-93274500D01*
X132977873Y-93274500D01*
X132977864Y-93274500D01*
X131182129Y-93274500D01*
X131182123Y-93274501D01*
X131122516Y-93280908D01*
X130987671Y-93331202D01*
X130987664Y-93331206D01*
X130872455Y-93417452D01*
X130872452Y-93417455D01*
X130780888Y-93539769D01*
X130778622Y-93538072D01*
X130739390Y-93577280D01*
X130671113Y-93592109D01*
X130605656Y-93567671D01*
X130563803Y-93511724D01*
X130556000Y-93468433D01*
X130556000Y-91818000D01*
X130575685Y-91750960D01*
X130628489Y-91705206D01*
X130680000Y-91694000D01*
X144910000Y-91694000D01*
X144977039Y-91713685D01*
G37*
%TD.AperFunction*%
%TA.AperFunction,Conductor*%
G36*
X132330000Y-99269498D02*
G01*
X132222315Y-99220320D01*
X132115763Y-99205000D01*
X132044237Y-99205000D01*
X131937685Y-99220320D01*
X131830000Y-99269498D01*
X131830000Y-97600501D01*
X131937685Y-97649680D01*
X132044237Y-97665000D01*
X132115763Y-97665000D01*
X132222315Y-97649680D01*
X132330000Y-97600501D01*
X132330000Y-99269498D01*
G37*
%TD.AperFunction*%
%TD*%
M02*
