%TF.GenerationSoftware,KiCad,Pcbnew,7.0.5*%
%TF.CreationDate,2023-06-08T09:16:15-06:00*%
%TF.ProjectId,VoltageRegulator,566f6c74-6167-4655-9265-67756c61746f,rev?*%
%TF.SameCoordinates,Original*%
%TF.FileFunction,Copper,L1,Top*%
%TF.FilePolarity,Positive*%
%FSLAX46Y46*%
G04 Gerber Fmt 4.6, Leading zero omitted, Abs format (unit mm)*
G04 Created by KiCad (PCBNEW 7.0.5) date 2023-06-08 09:16:15*
%MOMM*%
%LPD*%
G01*
G04 APERTURE LIST*
G04 Aperture macros list*
%AMRoundRect*
0 Rectangle with rounded corners*
0 $1 Rounding radius*
0 $2 $3 $4 $5 $6 $7 $8 $9 X,Y pos of 4 corners*
0 Add a 4 corners polygon primitive as box body*
4,1,4,$2,$3,$4,$5,$6,$7,$8,$9,$2,$3,0*
0 Add four circle primitives for the rounded corners*
1,1,$1+$1,$2,$3*
1,1,$1+$1,$4,$5*
1,1,$1+$1,$6,$7*
1,1,$1+$1,$8,$9*
0 Add four rect primitives between the rounded corners*
20,1,$1+$1,$2,$3,$4,$5,0*
20,1,$1+$1,$4,$5,$6,$7,0*
20,1,$1+$1,$6,$7,$8,$9,0*
20,1,$1+$1,$8,$9,$2,$3,0*%
G04 Aperture macros list end*
%TA.AperFunction,SMDPad,CuDef*%
%ADD10RoundRect,0.250000X-0.475000X0.250000X-0.475000X-0.250000X0.475000X-0.250000X0.475000X0.250000X0*%
%TD*%
%TA.AperFunction,SMDPad,CuDef*%
%ADD11RoundRect,0.200000X0.200000X0.275000X-0.200000X0.275000X-0.200000X-0.275000X0.200000X-0.275000X0*%
%TD*%
%TA.AperFunction,SMDPad,CuDef*%
%ADD12RoundRect,0.250000X0.475000X-0.250000X0.475000X0.250000X-0.475000X0.250000X-0.475000X-0.250000X0*%
%TD*%
%TA.AperFunction,SMDPad,CuDef*%
%ADD13RoundRect,0.200000X-0.200000X-0.275000X0.200000X-0.275000X0.200000X0.275000X-0.200000X0.275000X0*%
%TD*%
%TA.AperFunction,SMDPad,CuDef*%
%ADD14R,0.292473X0.556067*%
%TD*%
%TA.AperFunction,SMDPad,CuDef*%
%ADD15R,1.699999X1.100000*%
%TD*%
%TA.AperFunction,ComponentPad*%
%ADD16R,1.700000X1.700000*%
%TD*%
%TA.AperFunction,ComponentPad*%
%ADD17O,1.700000X1.700000*%
%TD*%
%TA.AperFunction,Conductor*%
%ADD18C,0.381000*%
%TD*%
%TA.AperFunction,Conductor*%
%ADD19C,0.254000*%
%TD*%
%TA.AperFunction,Conductor*%
%ADD20C,0.250000*%
%TD*%
G04 APERTURE END LIST*
D10*
%TO.P,C1,1*%
%TO.N,+BATT*%
X137795000Y-94554000D03*
%TO.P,C1,2*%
%TO.N,GND*%
X137795000Y-96454000D03*
%TD*%
D11*
%TO.P,R2,1*%
%TO.N,Net-(R1-Pad2)*%
X142367000Y-100711000D03*
%TO.P,R2,2*%
%TO.N,Net-(U1-FB)*%
X140717000Y-100711000D03*
%TD*%
D12*
%TO.P,C2,1*%
%TO.N,VCC*%
X137795000Y-102296000D03*
%TO.P,C2,2*%
%TO.N,GND*%
X137795000Y-100396000D03*
%TD*%
D13*
%TO.P,R3,1*%
%TO.N,Net-(U1-FB)*%
X140717000Y-99187000D03*
%TO.P,R3,2*%
%TO.N,GND*%
X142367000Y-99187000D03*
%TD*%
D14*
%TO.P,U1,1,OUT*%
%TO.N,VCC*%
X140844000Y-97244032D03*
%TO.P,U1,2,FB*%
%TO.N,Net-(U1-FB)*%
X141494001Y-97244032D03*
%TO.P,U1,3,PG*%
%TO.N,GND*%
X142144002Y-97244032D03*
%TO.P,U1,4,EN*%
%TO.N,+BATT*%
X142144002Y-95287968D03*
%TO.P,U1,5,GND*%
%TO.N,GND*%
X141494001Y-95287968D03*
%TO.P,U1,6,IN*%
%TO.N,+BATT*%
X140844000Y-95287968D03*
D15*
%TO.P,U1,7,Thermal_Pad*%
%TO.N,GND*%
X141494001Y-96266000D03*
%TD*%
D16*
%TO.P,J1,1,Pin_1*%
%TO.N,+BATT*%
X132080000Y-94625000D03*
D17*
%TO.P,J1,2,Pin_2*%
%TO.N,GND*%
X132080000Y-97165000D03*
%TO.P,J1,3,Pin_3*%
X132080000Y-99705000D03*
%TO.P,J1,4,Pin_4*%
%TO.N,VCC*%
X132080000Y-102245000D03*
%TD*%
D13*
%TO.P,R1,1*%
%TO.N,VCC*%
X140717000Y-102235000D03*
%TO.P,R1,2*%
%TO.N,Net-(R1-Pad2)*%
X142367000Y-102235000D03*
%TD*%
D18*
%TO.N,+BATT*%
X132080000Y-94625000D02*
X140844000Y-94625000D01*
D19*
X140844000Y-95287968D02*
X140844000Y-94628935D01*
X142144002Y-94628935D02*
X142144002Y-95287968D01*
X140853500Y-94619435D02*
X142134502Y-94619435D01*
X140844000Y-94628935D02*
X140853500Y-94619435D01*
D18*
X140844000Y-94625000D02*
X140844000Y-95287968D01*
D19*
X142134502Y-94619435D02*
X142144002Y-94628935D01*
D20*
%TO.N,GND*%
X141494001Y-95287968D02*
X141494001Y-96266000D01*
%TO.N,VCC*%
X140716000Y-102235000D02*
X139573500Y-101092500D01*
D18*
X139827000Y-100839000D02*
X139827000Y-98679000D01*
X137795000Y-102296000D02*
X138370000Y-102296000D01*
X137744000Y-102245000D02*
X132080000Y-102245000D01*
D20*
X140717000Y-102235000D02*
X140716000Y-102235000D01*
D18*
X137795000Y-102296000D02*
X137744000Y-102245000D01*
X139827000Y-98679000D02*
X140844000Y-97662000D01*
X138370000Y-102296000D02*
X139827000Y-100839000D01*
X140844000Y-97662000D02*
X140844000Y-97244032D01*
D20*
%TO.N,Net-(R1-Pad2)*%
X142367000Y-102235000D02*
X142367000Y-100711000D01*
%TO.N,Net-(U1-FB)*%
X140717000Y-100711000D02*
X140717000Y-99187000D01*
X140717000Y-99187000D02*
X141494001Y-98409999D01*
X141494001Y-98409999D02*
X141494001Y-97244032D01*
%TD*%
%TA.AperFunction,Conductor*%
%TO.N,GND*%
G36*
X144977039Y-91713685D02*
G01*
X145022794Y-91766489D01*
X145034000Y-91818000D01*
X145034000Y-105032000D01*
X145014315Y-105099039D01*
X144961511Y-105144794D01*
X144910000Y-105156000D01*
X130680000Y-105156000D01*
X130612961Y-105136315D01*
X130567206Y-105083511D01*
X130556000Y-105032000D01*
X130556000Y-102245000D01*
X130970768Y-102245000D01*
X130989654Y-102448816D01*
X130989654Y-102448818D01*
X130989655Y-102448821D01*
X131031039Y-102594270D01*
X131045673Y-102645704D01*
X131136912Y-102828935D01*
X131260269Y-102992287D01*
X131411537Y-103130185D01*
X131411539Y-103130187D01*
X131585569Y-103237942D01*
X131585575Y-103237945D01*
X131626010Y-103253609D01*
X131776444Y-103311888D01*
X131977653Y-103349500D01*
X131977656Y-103349500D01*
X132182344Y-103349500D01*
X132182347Y-103349500D01*
X132383556Y-103311888D01*
X132574427Y-103237944D01*
X132748462Y-103130186D01*
X132877008Y-103013000D01*
X132899730Y-102992287D01*
X132920715Y-102964499D01*
X133023088Y-102828935D01*
X133052103Y-102770666D01*
X133058047Y-102758729D01*
X133105549Y-102707492D01*
X133169047Y-102690000D01*
X136749166Y-102690000D01*
X136816205Y-102709685D01*
X136861960Y-102762489D01*
X136865339Y-102770645D01*
X136872658Y-102790267D01*
X136901597Y-102828925D01*
X136959595Y-102906404D01*
X137017443Y-102949707D01*
X137075733Y-102993342D01*
X137211658Y-103044040D01*
X137271745Y-103050500D01*
X138318254Y-103050499D01*
X138378342Y-103044040D01*
X138514267Y-102993342D01*
X138630404Y-102906404D01*
X138717342Y-102790267D01*
X138768040Y-102654342D01*
X138774371Y-102595458D01*
X138774499Y-102594270D01*
X138774499Y-102594264D01*
X138774500Y-102594255D01*
X138774499Y-102572188D01*
X138794181Y-102505151D01*
X138810813Y-102484510D01*
X139532136Y-101763187D01*
X139593457Y-101729704D01*
X139663149Y-101734688D01*
X139707493Y-101763187D01*
X139985485Y-102041179D01*
X140026181Y-102081875D01*
X140059666Y-102143198D01*
X140062500Y-102169556D01*
X140062500Y-102564742D01*
X140062501Y-102564748D01*
X140065379Y-102595451D01*
X140065379Y-102595453D01*
X140065380Y-102595455D01*
X140110630Y-102724771D01*
X140191989Y-102835010D01*
X140247108Y-102875689D01*
X140302227Y-102916369D01*
X140341600Y-102930146D01*
X140431541Y-102961619D01*
X140431545Y-102961619D01*
X140431549Y-102961621D01*
X140462251Y-102964500D01*
X140971748Y-102964499D01*
X141002451Y-102961621D01*
X141131773Y-102916369D01*
X141242010Y-102835010D01*
X141323369Y-102724773D01*
X141368621Y-102595451D01*
X141371500Y-102564749D01*
X141371500Y-102564742D01*
X141712500Y-102564742D01*
X141712501Y-102564748D01*
X141715379Y-102595451D01*
X141715379Y-102595453D01*
X141715380Y-102595455D01*
X141760630Y-102724771D01*
X141841989Y-102835010D01*
X141897108Y-102875689D01*
X141952227Y-102916369D01*
X141991600Y-102930146D01*
X142081541Y-102961619D01*
X142081545Y-102961619D01*
X142081549Y-102961621D01*
X142112251Y-102964500D01*
X142621748Y-102964499D01*
X142652451Y-102961621D01*
X142781773Y-102916369D01*
X142892010Y-102835010D01*
X142973369Y-102724773D01*
X143018621Y-102595451D01*
X143021500Y-102564749D01*
X143021499Y-101905252D01*
X143018621Y-101874549D01*
X142973369Y-101745227D01*
X142911261Y-101661074D01*
X142892010Y-101634989D01*
X142807705Y-101572770D01*
X142765455Y-101517123D01*
X142759996Y-101447467D01*
X142793063Y-101385917D01*
X142807705Y-101373230D01*
X142807707Y-101373229D01*
X142892010Y-101311010D01*
X142973369Y-101200773D01*
X143018621Y-101071451D01*
X143021500Y-101040749D01*
X143021499Y-100381252D01*
X143018621Y-100350549D01*
X142973369Y-100221227D01*
X142892010Y-100110990D01*
X142892011Y-100110990D01*
X142892009Y-100110988D01*
X142807284Y-100048459D01*
X142765033Y-99992812D01*
X142759574Y-99923156D01*
X142792641Y-99861606D01*
X142807284Y-99848918D01*
X142891654Y-99786650D01*
X142972921Y-99676537D01*
X142972921Y-99676536D01*
X143018122Y-99547364D01*
X143018124Y-99547352D01*
X143020999Y-99516690D01*
X143021000Y-99437000D01*
X141713000Y-99437000D01*
X141712999Y-99516690D01*
X141715875Y-99547352D01*
X141715877Y-99547364D01*
X141761078Y-99676536D01*
X141761078Y-99676537D01*
X141842346Y-99786652D01*
X141842347Y-99786653D01*
X141926715Y-99848919D01*
X141968966Y-99904566D01*
X141974425Y-99974222D01*
X141941358Y-100035772D01*
X141926716Y-100048459D01*
X141841989Y-100110989D01*
X141760630Y-100221228D01*
X141715380Y-100350541D01*
X141715378Y-100350553D01*
X141712500Y-100381246D01*
X141712500Y-101040742D01*
X141712501Y-101040748D01*
X141715379Y-101071451D01*
X141715379Y-101071453D01*
X141715380Y-101071455D01*
X141760630Y-101200771D01*
X141841990Y-101311011D01*
X141926293Y-101373229D01*
X141968544Y-101428876D01*
X141974003Y-101498532D01*
X141940936Y-101560082D01*
X141926295Y-101572768D01*
X141841990Y-101634988D01*
X141760630Y-101745228D01*
X141715380Y-101874541D01*
X141715378Y-101874553D01*
X141712500Y-101905246D01*
X141712500Y-102564742D01*
X141371500Y-102564742D01*
X141371499Y-101905252D01*
X141368621Y-101874549D01*
X141323369Y-101745227D01*
X141261261Y-101661074D01*
X141242010Y-101634989D01*
X141157705Y-101572769D01*
X141115454Y-101517121D01*
X141109997Y-101447465D01*
X141143064Y-101385916D01*
X141157694Y-101373237D01*
X141242010Y-101311010D01*
X141323369Y-101200773D01*
X141368621Y-101071451D01*
X141371500Y-101040749D01*
X141371499Y-100381252D01*
X141368621Y-100350549D01*
X141323369Y-100221227D01*
X141256005Y-100129952D01*
X141242010Y-100110989D01*
X141157705Y-100048770D01*
X141115455Y-99993123D01*
X141109996Y-99923467D01*
X141143063Y-99861917D01*
X141157705Y-99849230D01*
X141158127Y-99848919D01*
X141242010Y-99787010D01*
X141323369Y-99676773D01*
X141368621Y-99547451D01*
X141371500Y-99516749D01*
X141371499Y-99120554D01*
X141391183Y-99053516D01*
X141407813Y-99032879D01*
X141520667Y-98920025D01*
X141581988Y-98886542D01*
X141651680Y-98891526D01*
X141696027Y-98920027D01*
X141713000Y-98937000D01*
X142117000Y-98937000D01*
X142117000Y-98458000D01*
X142617000Y-98458000D01*
X142617000Y-98937000D01*
X143021000Y-98937000D01*
X143021000Y-98936999D01*
X143020999Y-98857309D01*
X143018124Y-98826647D01*
X143018122Y-98826635D01*
X142972921Y-98697463D01*
X142972921Y-98697462D01*
X142891653Y-98587347D01*
X142891652Y-98587346D01*
X142781536Y-98506078D01*
X142652364Y-98460877D01*
X142652352Y-98460875D01*
X142621690Y-98458000D01*
X142617000Y-98458000D01*
X142117000Y-98458000D01*
X142112310Y-98458000D01*
X142081647Y-98460875D01*
X142081635Y-98460877D01*
X142038456Y-98475987D01*
X141968677Y-98479549D01*
X141908050Y-98444821D01*
X141875822Y-98382827D01*
X141873501Y-98358946D01*
X141873501Y-97900064D01*
X141893186Y-97833025D01*
X141945990Y-97787270D01*
X141997499Y-97776064D01*
X141997766Y-97776063D01*
X141997766Y-97390268D01*
X142290238Y-97390268D01*
X142290238Y-97776065D01*
X142315254Y-97776065D01*
X142389345Y-97761328D01*
X142389348Y-97761327D01*
X142473362Y-97705189D01*
X142529502Y-97621170D01*
X142529503Y-97621169D01*
X142544238Y-97547087D01*
X142544239Y-97547084D01*
X142544239Y-97390268D01*
X142290238Y-97390268D01*
X141997766Y-97390268D01*
X141997766Y-96711998D01*
X142290238Y-96711998D01*
X142290238Y-97097796D01*
X142544238Y-97097796D01*
X142544238Y-96940983D01*
X142529501Y-96866891D01*
X142529500Y-96866888D01*
X142473362Y-96782874D01*
X142389343Y-96726734D01*
X142389342Y-96726733D01*
X142315260Y-96711998D01*
X142290238Y-96711998D01*
X141997766Y-96711998D01*
X141997766Y-96711997D01*
X141972751Y-96711998D01*
X141972750Y-96711998D01*
X141898658Y-96726735D01*
X141888340Y-96733630D01*
X141821662Y-96754506D01*
X141754282Y-96736020D01*
X141750581Y-96733642D01*
X141739539Y-96726264D01*
X141739537Y-96726263D01*
X141739535Y-96726262D01*
X141739537Y-96726262D01*
X141665307Y-96711498D01*
X141322700Y-96711498D01*
X141248461Y-96726264D01*
X141237887Y-96733330D01*
X141171209Y-96754205D01*
X141103830Y-96735718D01*
X141100112Y-96733329D01*
X141089538Y-96726264D01*
X141089535Y-96726262D01*
X141015306Y-96711498D01*
X140672699Y-96711498D01*
X140598461Y-96726264D01*
X140514278Y-96782513D01*
X140458029Y-96866697D01*
X140458027Y-96866701D01*
X140443263Y-96940926D01*
X140443263Y-97014775D01*
X140437754Y-97051322D01*
X140423419Y-97097796D01*
X140399000Y-97176959D01*
X140399000Y-97426311D01*
X140379315Y-97493350D01*
X140362681Y-97513992D01*
X139532472Y-98344201D01*
X139527286Y-98348836D01*
X139497108Y-98372904D01*
X139464671Y-98420477D01*
X139463331Y-98422366D01*
X139429124Y-98468717D01*
X139425213Y-98476115D01*
X139421541Y-98483742D01*
X139404566Y-98538765D01*
X139403843Y-98540964D01*
X139384819Y-98595333D01*
X139383254Y-98603602D01*
X139382000Y-98611926D01*
X139382000Y-98669534D01*
X139381957Y-98671818D01*
X139381163Y-98693067D01*
X139379803Y-98729388D01*
X139380844Y-98738622D01*
X139379998Y-98738717D01*
X139382000Y-98753908D01*
X139382000Y-100603312D01*
X139362315Y-100670351D01*
X139345681Y-100690993D01*
X138515080Y-101521593D01*
X138453757Y-101555078D01*
X138384071Y-101550096D01*
X138378347Y-101547961D01*
X138378338Y-101547959D01*
X138318262Y-101541500D01*
X137271748Y-101541500D01*
X137271742Y-101541501D01*
X137211655Y-101547960D01*
X137075738Y-101598655D01*
X137075730Y-101598660D01*
X136959600Y-101685592D01*
X136959594Y-101685597D01*
X136911152Y-101750310D01*
X136855219Y-101792182D01*
X136811885Y-101800000D01*
X133169047Y-101800000D01*
X133102008Y-101780315D01*
X133058047Y-101731271D01*
X133023093Y-101661074D01*
X133023086Y-101661062D01*
X132899730Y-101497712D01*
X132748462Y-101359814D01*
X132748460Y-101359812D01*
X132574430Y-101252057D01*
X132574424Y-101252054D01*
X132423993Y-101193777D01*
X132383556Y-101178112D01*
X132182347Y-101140500D01*
X131977653Y-101140500D01*
X131776444Y-101178112D01*
X131776441Y-101178112D01*
X131776441Y-101178113D01*
X131585575Y-101252054D01*
X131585569Y-101252057D01*
X131411539Y-101359812D01*
X131411537Y-101359814D01*
X131260269Y-101497712D01*
X131136912Y-101661064D01*
X131045673Y-101844295D01*
X130989654Y-102041183D01*
X130970768Y-102244999D01*
X130970768Y-102245000D01*
X130556000Y-102245000D01*
X130556000Y-99454999D01*
X131003312Y-99454999D01*
X131003313Y-99455000D01*
X131646314Y-99455000D01*
X131620507Y-99495156D01*
X131580000Y-99633111D01*
X131580000Y-99776889D01*
X131620507Y-99914844D01*
X131646314Y-99955000D01*
X131003313Y-99955000D01*
X131046140Y-100105522D01*
X131137339Y-100288671D01*
X131260640Y-100451949D01*
X131411836Y-100589782D01*
X131411842Y-100589786D01*
X131585793Y-100697492D01*
X131585808Y-100697499D01*
X131776574Y-100771403D01*
X131829999Y-100781389D01*
X131829999Y-100140501D01*
X131937685Y-100189680D01*
X132044237Y-100205000D01*
X132115763Y-100205000D01*
X132222315Y-100189680D01*
X132330000Y-100140501D01*
X132330000Y-100781389D01*
X132383426Y-100771402D01*
X132574191Y-100697499D01*
X132574206Y-100697492D01*
X132657368Y-100646000D01*
X136816001Y-100646000D01*
X136816001Y-100694216D01*
X136822452Y-100754235D01*
X136822453Y-100754238D01*
X136873099Y-100890021D01*
X136873103Y-100890027D01*
X136959952Y-101006047D01*
X137075972Y-101092896D01*
X137075974Y-101092897D01*
X137211768Y-101143547D01*
X137271780Y-101149999D01*
X137544999Y-101149999D01*
X137545000Y-101149998D01*
X137545000Y-100646000D01*
X138045000Y-100646000D01*
X138045000Y-101149999D01*
X138318207Y-101149999D01*
X138318216Y-101149998D01*
X138378235Y-101143547D01*
X138378238Y-101143546D01*
X138514021Y-101092900D01*
X138514027Y-101092896D01*
X138630047Y-101006047D01*
X138716896Y-100890027D01*
X138716897Y-100890025D01*
X138767547Y-100754231D01*
X138773999Y-100694227D01*
X138774000Y-100694210D01*
X138774000Y-100646000D01*
X138045000Y-100646000D01*
X137545000Y-100646000D01*
X136816001Y-100646000D01*
X132657368Y-100646000D01*
X132748157Y-100589786D01*
X132748163Y-100589782D01*
X132899359Y-100451949D01*
X133022660Y-100288671D01*
X133093703Y-100146000D01*
X136816000Y-100146000D01*
X137545000Y-100146000D01*
X137545000Y-99642000D01*
X138045000Y-99642000D01*
X138045000Y-100146000D01*
X138773999Y-100146000D01*
X138773999Y-100097792D01*
X138773998Y-100097783D01*
X138767547Y-100037764D01*
X138767546Y-100037761D01*
X138716900Y-99901978D01*
X138716896Y-99901972D01*
X138630047Y-99785952D01*
X138514027Y-99699103D01*
X138514025Y-99699102D01*
X138378231Y-99648452D01*
X138318227Y-99642000D01*
X138045000Y-99642000D01*
X137545000Y-99642000D01*
X137271793Y-99642000D01*
X137271783Y-99642001D01*
X137211764Y-99648452D01*
X137211761Y-99648453D01*
X137075978Y-99699099D01*
X137075972Y-99699103D01*
X136959952Y-99785952D01*
X136873103Y-99901972D01*
X136873102Y-99901974D01*
X136822452Y-100037768D01*
X136816000Y-100097772D01*
X136816000Y-100146000D01*
X133093703Y-100146000D01*
X133113859Y-100105522D01*
X133156687Y-99955000D01*
X132513686Y-99955000D01*
X132539493Y-99914844D01*
X132580000Y-99776889D01*
X132580000Y-99633111D01*
X132539493Y-99495156D01*
X132513686Y-99455000D01*
X133156687Y-99455000D01*
X133156687Y-99454999D01*
X133113859Y-99304477D01*
X133022660Y-99121328D01*
X132899359Y-98958050D01*
X132748163Y-98820217D01*
X132748157Y-98820213D01*
X132574206Y-98712507D01*
X132574200Y-98712504D01*
X132383417Y-98638595D01*
X132383407Y-98638592D01*
X132330001Y-98628608D01*
X132330000Y-98628609D01*
X132330000Y-99269498D01*
X132222315Y-99220320D01*
X132115763Y-99205000D01*
X132044237Y-99205000D01*
X131937685Y-99220320D01*
X131829999Y-99269498D01*
X131829999Y-98628608D01*
X131776592Y-98638592D01*
X131776582Y-98638595D01*
X131585799Y-98712504D01*
X131585793Y-98712507D01*
X131411842Y-98820213D01*
X131411836Y-98820217D01*
X131260640Y-98958050D01*
X131137339Y-99121328D01*
X131046140Y-99304477D01*
X131003312Y-99454999D01*
X130556000Y-99454999D01*
X130556000Y-96914999D01*
X131003312Y-96914999D01*
X131003313Y-96915000D01*
X131646314Y-96915000D01*
X131620507Y-96955156D01*
X131580000Y-97093111D01*
X131580000Y-97236889D01*
X131620507Y-97374844D01*
X131646314Y-97415000D01*
X131003313Y-97415000D01*
X131046140Y-97565522D01*
X131137339Y-97748671D01*
X131260640Y-97911949D01*
X131411836Y-98049782D01*
X131411842Y-98049786D01*
X131585793Y-98157492D01*
X131585808Y-98157499D01*
X131776574Y-98231403D01*
X131829999Y-98241389D01*
X131829999Y-97600501D01*
X131937685Y-97649680D01*
X132044237Y-97665000D01*
X132115763Y-97665000D01*
X132222315Y-97649680D01*
X132330000Y-97600501D01*
X132330000Y-98241389D01*
X132383426Y-98231402D01*
X132574191Y-98157499D01*
X132574206Y-98157492D01*
X132748157Y-98049786D01*
X132748163Y-98049782D01*
X132899359Y-97911949D01*
X133022660Y-97748671D01*
X133113859Y-97565522D01*
X133156687Y-97415000D01*
X132513686Y-97415000D01*
X132539493Y-97374844D01*
X132580000Y-97236889D01*
X132580000Y-97093111D01*
X132539493Y-96955156D01*
X132513686Y-96915000D01*
X133156687Y-96915000D01*
X133156687Y-96914999D01*
X133113859Y-96764477D01*
X133083744Y-96704000D01*
X136816001Y-96704000D01*
X136816001Y-96752216D01*
X136822452Y-96812235D01*
X136822453Y-96812238D01*
X136873099Y-96948021D01*
X136873103Y-96948027D01*
X136959952Y-97064047D01*
X137075972Y-97150896D01*
X137075974Y-97150897D01*
X137211768Y-97201547D01*
X137271780Y-97207999D01*
X137544999Y-97207999D01*
X137545000Y-97207998D01*
X137545000Y-96704000D01*
X138045000Y-96704000D01*
X138045000Y-97207999D01*
X138318207Y-97207999D01*
X138318216Y-97207998D01*
X138378235Y-97201547D01*
X138378238Y-97201546D01*
X138514021Y-97150900D01*
X138514027Y-97150896D01*
X138630047Y-97064047D01*
X138716896Y-96948027D01*
X138716897Y-96948025D01*
X138767547Y-96812231D01*
X138773999Y-96752227D01*
X138774000Y-96752210D01*
X138774000Y-96704000D01*
X138045000Y-96704000D01*
X137545000Y-96704000D01*
X136816001Y-96704000D01*
X133083744Y-96704000D01*
X133022660Y-96581328D01*
X132899359Y-96418050D01*
X132748163Y-96280217D01*
X132748157Y-96280213D01*
X132625069Y-96204000D01*
X136816000Y-96204000D01*
X137545000Y-96204000D01*
X137545000Y-95700000D01*
X138045000Y-95700000D01*
X138045000Y-96204000D01*
X138773999Y-96204000D01*
X138773999Y-96155792D01*
X138773998Y-96155783D01*
X138767547Y-96095764D01*
X138767546Y-96095761D01*
X138716900Y-95959978D01*
X138716896Y-95959972D01*
X138630047Y-95843952D01*
X138514027Y-95757103D01*
X138514025Y-95757102D01*
X138378231Y-95706452D01*
X138318227Y-95700000D01*
X138045000Y-95700000D01*
X137545000Y-95700000D01*
X137271793Y-95700000D01*
X137271783Y-95700001D01*
X137211764Y-95706452D01*
X137211761Y-95706453D01*
X137075978Y-95757099D01*
X137075972Y-95757103D01*
X136959952Y-95843952D01*
X136873103Y-95959972D01*
X136873102Y-95959974D01*
X136822452Y-96095768D01*
X136816000Y-96155772D01*
X136816000Y-96204000D01*
X132625069Y-96204000D01*
X132574206Y-96172507D01*
X132574200Y-96172504D01*
X132383417Y-96098595D01*
X132383407Y-96098592D01*
X132330001Y-96088608D01*
X132330000Y-96088609D01*
X132330000Y-96729498D01*
X132222315Y-96680320D01*
X132115763Y-96665000D01*
X132044237Y-96665000D01*
X131937685Y-96680320D01*
X131829999Y-96729498D01*
X131829999Y-96088608D01*
X131776592Y-96098592D01*
X131776582Y-96098595D01*
X131585799Y-96172504D01*
X131585793Y-96172507D01*
X131411842Y-96280213D01*
X131411836Y-96280217D01*
X131260640Y-96418050D01*
X131137339Y-96581328D01*
X131046140Y-96764477D01*
X131003312Y-96914999D01*
X130556000Y-96914999D01*
X130556000Y-95500063D01*
X130975500Y-95500063D01*
X130990266Y-95574301D01*
X131046515Y-95658484D01*
X131056721Y-95665303D01*
X131130699Y-95714734D01*
X131130702Y-95714734D01*
X131130703Y-95714735D01*
X131155666Y-95719700D01*
X131204933Y-95729500D01*
X132955066Y-95729499D01*
X133029301Y-95714734D01*
X133113484Y-95658484D01*
X133169734Y-95574301D01*
X133184500Y-95500067D01*
X133184500Y-95194000D01*
X133204185Y-95126961D01*
X133256989Y-95081206D01*
X133308500Y-95070000D01*
X136826856Y-95070000D01*
X136893895Y-95089685D01*
X136926123Y-95119689D01*
X136959596Y-95164404D01*
X137075733Y-95251342D01*
X137211658Y-95302040D01*
X137271745Y-95308500D01*
X138318254Y-95308499D01*
X138378342Y-95302040D01*
X138514267Y-95251342D01*
X138630404Y-95164404D01*
X138663876Y-95119689D01*
X138719810Y-95077818D01*
X138763144Y-95070000D01*
X140275000Y-95070000D01*
X140342039Y-95089685D01*
X140387794Y-95142489D01*
X140399000Y-95194000D01*
X140399000Y-95321321D01*
X140413966Y-95420613D01*
X140413967Y-95420615D01*
X140430984Y-95455952D01*
X140443263Y-95509751D01*
X140443263Y-95591065D01*
X140458029Y-95665303D01*
X140514278Y-95749486D01*
X140547997Y-95772016D01*
X140598462Y-95805736D01*
X140598465Y-95805736D01*
X140598466Y-95805737D01*
X140623429Y-95810702D01*
X140672696Y-95820502D01*
X141015303Y-95820501D01*
X141089538Y-95805736D01*
X141100556Y-95798373D01*
X141167231Y-95777493D01*
X141234612Y-95795975D01*
X141238341Y-95798371D01*
X141248659Y-95805265D01*
X141248660Y-95805266D01*
X141322744Y-95820000D01*
X141347765Y-95820000D01*
X141347765Y-95265732D01*
X141367450Y-95198693D01*
X141420254Y-95152938D01*
X141471765Y-95141732D01*
X141516237Y-95141732D01*
X141583276Y-95161417D01*
X141629031Y-95214221D01*
X141640237Y-95265732D01*
X141640237Y-95820001D01*
X141665253Y-95820001D01*
X141739342Y-95805264D01*
X141749658Y-95798372D01*
X141816335Y-95777493D01*
X141883715Y-95795976D01*
X141887421Y-95798357D01*
X141898464Y-95805736D01*
X141898466Y-95805737D01*
X141898465Y-95805737D01*
X141947839Y-95815557D01*
X141972698Y-95820502D01*
X142315305Y-95820501D01*
X142389540Y-95805736D01*
X142473723Y-95749486D01*
X142529973Y-95665303D01*
X142544739Y-95591069D01*
X142544738Y-94984868D01*
X142529973Y-94910633D01*
X142527884Y-94900127D01*
X142525502Y-94875939D01*
X142525502Y-94681362D01*
X142528141Y-94655917D01*
X142528812Y-94652714D01*
X142530447Y-94644918D01*
X142528355Y-94628135D01*
X142525979Y-94609068D01*
X142525502Y-94601392D01*
X142525502Y-94597328D01*
X142525500Y-94597312D01*
X142521809Y-94575192D01*
X142521439Y-94572654D01*
X142520991Y-94569063D01*
X142514698Y-94518575D01*
X142514696Y-94518572D01*
X142512421Y-94510929D01*
X142509819Y-94503347D01*
X142490514Y-94467676D01*
X142488746Y-94464056D01*
X142486688Y-94460604D01*
X142485659Y-94458704D01*
X142483877Y-94455412D01*
X142482712Y-94453147D01*
X142458777Y-94404187D01*
X142454138Y-94397690D01*
X142449221Y-94391371D01*
X142440483Y-94383328D01*
X142420657Y-94359921D01*
X142419062Y-94357479D01*
X142390545Y-94335283D01*
X142384799Y-94330209D01*
X142381911Y-94327321D01*
X142374942Y-94322345D01*
X142368970Y-94317496D01*
X142355548Y-94305139D01*
X142346947Y-94299520D01*
X142347128Y-94299242D01*
X142334800Y-94291896D01*
X142318585Y-94279275D01*
X142311572Y-94275480D01*
X142304370Y-94271959D01*
X142252136Y-94256408D01*
X142249695Y-94255626D01*
X142198162Y-94237934D01*
X142190281Y-94236619D01*
X142182341Y-94235629D01*
X142129293Y-94237824D01*
X142127898Y-94237882D01*
X142125337Y-94237935D01*
X141104488Y-94237935D01*
X141048616Y-94221529D01*
X141047632Y-94223573D01*
X141039259Y-94219541D01*
X141036426Y-94218667D01*
X141010979Y-94207564D01*
X141008415Y-94206083D01*
X140961514Y-94195378D01*
X140957035Y-94194177D01*
X140911073Y-94180000D01*
X140908111Y-94180000D01*
X140880517Y-94176891D01*
X140877627Y-94176231D01*
X140847348Y-94178501D01*
X140829649Y-94179827D01*
X140825033Y-94180000D01*
X138848294Y-94180000D01*
X138781255Y-94160315D01*
X138735500Y-94107511D01*
X138732113Y-94099335D01*
X138717342Y-94059733D01*
X138673707Y-94001443D01*
X138630404Y-93943595D01*
X138553126Y-93885747D01*
X138514267Y-93856658D01*
X138378342Y-93805960D01*
X138378338Y-93805959D01*
X138318262Y-93799500D01*
X137271748Y-93799500D01*
X137271742Y-93799501D01*
X137211655Y-93805960D01*
X137075738Y-93856655D01*
X137075730Y-93856660D01*
X136959595Y-93943595D01*
X136875452Y-94056000D01*
X136872658Y-94059733D01*
X136872656Y-94059736D01*
X136872657Y-94059736D01*
X136857887Y-94099335D01*
X136816016Y-94155268D01*
X136750551Y-94179684D01*
X136741706Y-94180000D01*
X133308499Y-94180000D01*
X133241460Y-94160315D01*
X133195705Y-94107511D01*
X133184499Y-94056000D01*
X133184499Y-93749936D01*
X133184499Y-93749934D01*
X133169734Y-93675699D01*
X133151068Y-93647764D01*
X133113484Y-93591515D01*
X133063019Y-93557796D01*
X133029301Y-93535266D01*
X133029299Y-93535265D01*
X133029296Y-93535264D01*
X132955069Y-93520500D01*
X131204936Y-93520500D01*
X131130698Y-93535266D01*
X131046515Y-93591515D01*
X130990266Y-93675699D01*
X130990264Y-93675703D01*
X130975500Y-93749928D01*
X130975500Y-95500063D01*
X130556000Y-95500063D01*
X130556000Y-91818000D01*
X130575685Y-91750961D01*
X130628489Y-91705206D01*
X130680000Y-91694000D01*
X144910000Y-91694000D01*
X144977039Y-91713685D01*
G37*
%TD.AperFunction*%
%TD*%
M02*
